<?xml version="1.0" encoding="UTF-8"?>
<!DOCTYPE svg PUBLIC "-//W3C//DTD SVG 1.1//EN" "http://www.w3.org/Graphics/SVG/1.1/DTD/svg11.dtd">
<!-- Creator: CorelDRAW -->
<svg xmlns="http://www.w3.org/2000/svg" xml:space="preserve" width="297mm" height="210mm" version="1.1" style="shape-rendering:geometricPrecision; text-rendering:geometricPrecision; image-rendering:optimizeQuality; fill-rule:evenodd; clip-rule:evenodd"
viewBox="0 0 29700 21000"
 xmlns:xlink="http://www.w3.org/1999/xlink"
 xmlns:xodm="http://www.corel.com/coreldraw/odm/2003">
 <defs>
  <style type="text/css">
   <![CDATA[
    .fil0 {fill:none}
    .fil3 {fill:#7690C9}
    .fil2 {fill:#00225A}
    .fil1 {fill:#00B5D9}
   ]]>
  </style>
 </defs>
 <g id="Слой_x0020_1">
  <metadata id="CorelCorpID_0Corel-Layer"/>
  <polygon class="fil0" points="-148.68,20865.99 30172.25,20865.99 30172.25,10.32 -148.68,10.32 "/>
  <g id="_2816876552288">
   <g>
    <path class="fil1" d="M12204.16 8259.08c-237.79,0 -430.5,-192.7 -430.5,-430.49 0,-237.77 192.71,-430.5 430.5,-430.5l1490.78 0c237.82,0 430.47,192.73 430.47,430.5 0,237.79 -192.65,430.49 -430.47,430.49l-1490.78 0z"/>
    <path class="fil1" d="M11901.5 8725.91c25.13,-3.6 50.95,-5.54 77.22,-5.54l1665.74 0c265.68,0 480.95,192.73 480.95,430.5 0,237.77 -215.27,430.49 -480.95,430.49l-478.65 0c-25.15,3.62 -50.94,5.54 -77.19,5.54l-1665.72 0c-265.68,0 -481.02,-192.71 -481.02,-430.5 0,-237.77 215.34,-430.49 481.02,-430.49l478.6 0z"/>
    <path class="fil1" d="M11914.9 10120.15l929.93 0 785.29 0c273.61,0 495.29,192.73 495.29,430.5 0,237.76 -221.68,430.49 -495.29,430.49l-785.29 0 -929.93 0 -785.34 0c-273.54,0 -495.31,-192.73 -495.31,-430.49 0,-237.77 221.77,-430.5 495.31,-430.5l785.34 0z"/>
    <path class="fil1" d="M11978.72 11497.73l1151.32 0 514.42 0c265.68,0 480.95,192.7 480.95,430.47 0,237.77 -215.27,430.5 -480.95,430.5l-514.42 0 -1151.32 0 -514.4 0c-265.68,0 -481.04,-192.73 -481.04,-430.5 0,-237.77 215.36,-430.47 481.04,-430.47l514.4 0z"/>
    <path class="fil1" d="M12204.16 13714.01c-237.79,0 -430.5,-192.73 -430.5,-430.5 0,-237.76 192.71,-430.49 430.5,-430.49l1490.78 0c237.82,0 430.47,192.73 430.47,430.49 0,237.77 -192.65,430.5 -430.47,430.5l-1490.78 0z"/>
   </g>
   <g>
    <path class="fil2" d="M15346.52 6334.23c-282.02,0 -510.62,-228.59 -510.62,-510.64 0,-282.02 228.6,-510.62 510.62,-510.62l1768.29 0c282.03,0 510.62,228.6 510.62,510.62 0,282.05 -228.59,510.64 -510.62,510.64l-1768.29 0z"/>
    <path class="fil2" d="M15346.52 7816.65c-282.02,0 -510.62,-228.6 -510.62,-510.64 0,-282.03 228.6,-510.62 510.62,-510.62l982.93 0 0 -0.44 2091.58 0 0 0.44 686.45 0c282.04,0 510.64,228.59 510.64,510.62 0,282.04 -228.6,510.64 -510.64,510.64l-1768.25 0c-7.23,0 -14.45,-0.16 -21.57,-0.46l-181.3 0c-7.12,0.3 -14.31,0.46 -21.55,0.46l-1768.29 0z"/>
    <path class="fil2" d="M15346.52 9447.25c-282.02,0 -510.62,-228.57 -510.62,-510.61 0,-282.03 228.6,-510.62 510.62,-510.62l1482.53 0 285.76 0 921.62 0 884.17 0 884.14 0c282.02,0 510.62,228.59 510.62,510.62 0,282.04 -228.6,510.61 -510.62,510.61l-884.14 0 -884.17 0 -921.62 0 -285.76 0 -1482.53 0z"/>
    <path class="fil2" d="M15346.52 11028.53c-282.02,0 -510.62,-228.59 -510.62,-510.62 0,-282.02 228.6,-510.62 510.62,-510.62l1482.14 0 286.15 0 1270.26 0 535.14 0 1233.15 0c282.02,0 510.61,228.6 510.61,510.62 0,282.03 -228.59,510.62 -510.61,510.62l-1233.15 0 -535.14 0 -1270.26 0 -286.15 0 -1482.14 0z"/>
    <path class="fil2" d="M15346.52 12642.15c-282.02,0 -510.62,-228.59 -510.62,-510.62 0,-282.02 228.6,-510.59 510.62,-510.59l1233.12 0 535.17 0 921.62 0 634.74 0 1133.57 0c282.02,0 510.62,228.57 510.62,510.59 0,282.03 -228.6,510.62 -510.62,510.62l-1133.57 0 -634.74 0 -921.62 0 -535.17 0 -1233.12 0z"/>
    <path class="fil2" d="M15346.52 14272.78c-282.02,0 -510.62,-228.59 -510.62,-510.62 0,-282.02 228.6,-510.62 510.62,-510.62l1768.29 0c18.97,0 37.76,1.04 56.18,3.09l112.12 0c18.39,-2.05 37.13,-3.09 56.12,-3.09l1768.25 0c282.04,0 510.64,228.6 510.64,510.62 0,282.03 -228.6,510.62 -510.64,510.62l-825.59 0 0 3.09 -2091.55 0 0 -3.09 -843.82 0z"/>
    <path class="fil2" d="M15346.52 15804.25c-282.02,0 -510.62,-228.6 -510.62,-510.62 0,-282.03 228.6,-510.62 510.62,-510.62l1768.29 0c282.03,0 510.62,228.59 510.62,510.62 0,282.02 -228.59,510.62 -510.62,510.62l-1768.29 0z"/>
   </g>
   <g>
    <path class="fil3" d="M10753.81 6933.39c280.76,0 509.7,-228.98 509.7,-509.72 0,-280.73 -228.94,-509.72 -509.7,-509.72 -280.76,0 -509.77,228.99 -509.77,509.72 0,280.74 229.01,509.72 509.77,509.72z"/>
    <path class="fil3" d="M10741.5 15139.28c280.76,0 509.72,-228.99 509.72,-509.74 0,-280.76 -228.96,-509.72 -509.72,-509.72 -280.78,0 -509.74,228.96 -509.74,509.72 0,280.75 228.96,509.74 509.74,509.74z"/>
    <path class="fil3" d="M13523.56 5307.81c332.41,0 601.85,228.18 601.85,509.72 0,281.52 -269.44,509.72 -601.85,509.72 -8.32,0 -16.6,-0.14 -24.83,-0.44l-1209.67 0c-8.23,0.3 -16.55,0.44 -24.83,0.44 -332.46,0 -601.92,-228.2 -601.92,-509.72 0,-281.54 269.46,-509.72 601.92,-509.72l23.21 0.39 1212.84 0 23.28 -0.39z"/>
    <path class="fil3" d="M13523.56 14784.81c332.41,0 601.85,228.2 601.85,509.72 0,281.54 -269.44,509.72 -601.85,509.72 -8.32,0 -16.6,-0.14 -24.83,-0.44l-1209.67 0c-8.23,0.3 -16.55,0.44 -24.83,0.44 -332.46,0 -601.92,-228.18 -601.92,-509.72 0,-281.52 269.46,-509.72 601.92,-509.72l23.21 0.39 1212.84 0 23.28 -0.39z"/>
    <path class="fil3" d="M9981.84 7501.89c281.54,0 509.74,228.2 509.74,509.72 0,281.54 -228.2,509.72 -509.74,509.72 -9.24,0 -18.46,-0.23 -27.64,-0.74l-454.39 0c-9.16,0.51 -18.35,0.74 -27.64,0.74 -281.54,0 -509.75,-228.18 -509.75,-509.72 0,-274.46 216.98,-498.22 488.73,-509.28l0 -0.35 12.24 0 8.78 -0.09 10.79 0.09 488.02 0 10.86 -0.09z"/>
    <path class="fil3" d="M9178.04 9152.09l9.08 0.09 245.58 0 11.28 -0.09c291.29,0 527.4,228.2 527.4,509.72 0,281.54 -236.11,509.72 -527.4,509.72 -9.59,0 -19.16,-0.23 -28.61,-0.74l-208.54 0c-9.52,0.51 -19.15,0.74 -28.79,0.74 -9.4,0 -18.81,-0.23 -28.14,-0.74l-0.44 0 -204.28 0 -0.48 0c-9.29,0.51 -18.7,0.74 -28.1,0.74 -9.66,0 -19.29,-0.23 -28.79,-0.74l-208.54 0c-9.5,0.51 -18.99,0.74 -28.61,0.74 -291.31,0 -527.4,-228.18 -527.4,-509.72 0,-274.46 224.47,-498.22 505.67,-509.28l0 -0.35 12.67 0 9.06 -0.09 11.18 0.09 232.98 0 12.67 0 9.11 -0.09 11.18 0.09 239.06 0 11.2 -0.09z"/>
    <path class="fil3" d="M9137.33 10829.03l9.06 0.09 245.61 0 11.27 -0.09c291.27,0 527.4,228.2 527.4,509.72 0,281.54 -236.13,509.72 -527.4,509.72 -9.59,0 -19.16,-0.25 -28.61,-0.76l-208.58 0c-9.48,0.51 -19.11,0.76 -28.75,0.76 -9.4,0 -18.81,-0.25 -28.14,-0.76l-0.44 0 -204.28 0 -0.48 0c-9.31,0.51 -18.69,0.76 -28.1,0.76 -9.66,0 -19.31,-0.25 -28.79,-0.76l-208.54 0c-9.49,0.51 -18.99,0.76 -28.6,0.76 -291.32,0 -527.4,-228.18 -527.4,-509.72 0,-274.47 224.46,-498.22 505.66,-509.28l0 -0.35 12.68 0 9.06 -0.09 11.18 0.09 232.97 0 12.68 0 9.1 -0.09 11.18 0.09 239.06 0 11.2 -0.09z"/>
    <path class="fil3" d="M9980.3 12522.33c281.54,0 509.74,228.21 509.74,509.72 0,281.55 -228.2,509.75 -509.74,509.75 -9.25,0 -18.47,-0.26 -27.62,-0.76l-454.42 0c-9.17,0.5 -18.35,0.76 -27.64,0.76 -281.54,0 -509.74,-228.2 -509.74,-509.75 0,-274.46 216.98,-498.21 488.72,-509.28l0 -0.34 12.24 0 8.78 -0.1 10.84 0.1 487.98 0 10.86 -0.1z"/>
   </g>
  </g>
 </g>
</svg>
